<svg xmlns="http://www.w3.org/2000/svg" width="2271" height="1469" viewBox="0 0 2271 1469" version="1.1"><path d="M 517 179.915 C 512.325 180.961, 506.485 182.549, 504.022 183.445 C 501.559 184.340, 496.193 186.880, 492.098 189.089 C 488.002 191.298, 481.736 195.425, 478.172 198.261 C 474.609 201.096, 468.987 206.810, 465.680 210.958 C 462.373 215.106, 457.763 222.550, 455.437 227.500 C 453.111 232.450, 450.463 239.543, 449.554 243.261 C 448.645 246.980, 447.636 253.785, 447.311 258.384 C 446.986 262.982, 447.266 271.078, 447.933 276.374 C 448.600 281.669, 450.246 290.116, 451.591 295.144 C 452.937 300.173, 455.763 307.935, 457.872 312.393 C 459.980 316.852, 463.776 323.286, 466.307 326.690 C 468.838 330.095, 473.175 334.673, 475.946 336.863 C 478.716 339.053, 483.349 341.993, 486.241 343.397 C 489.134 344.800, 494.425 346.747, 498 347.722 C 503.094 349.111, 508.068 349.472, 521 349.391 C 531.882 349.323, 543.118 348.531, 554 347.066 C 563.075 345.844, 574.775 344.849, 580 344.854 C 585.225 344.859, 592.960 345.582, 597.190 346.460 C 601.419 347.338, 612.090 350.518, 620.903 353.528 C 629.717 356.538, 638.244 359, 639.853 359 C 641.462 359, 643.841 358.138, 645.139 357.084 C 647.177 355.429, 647.477 354.367, 647.335 349.312 C 647.245 346.092, 645.126 334.692, 642.627 323.979 C 640.129 313.265, 636.730 296.534, 635.075 286.797 C 633.421 277.061, 631.132 265.361, 629.989 260.797 C 628.847 256.234, 626.743 248.900, 625.315 244.500 C 623.886 240.100, 620.922 232.900, 618.728 228.500 C 616.533 224.100, 613.365 218.475, 611.688 216 C 610.010 213.525, 606.653 209.154, 604.229 206.287 C 601.804 203.420, 596.599 198.628, 592.660 195.638 C 588.722 192.648, 582.269 188.591, 578.321 186.624 C 574.373 184.656, 567.848 182.093, 563.821 180.928 C 558.194 179.300, 552.914 178.718, 541 178.412 C 528.353 178.087, 523.936 178.364, 517 179.915 M 1421.500 752.719 C 1420.400 752.987, 1418.713 753.905, 1417.750 754.758 C 1416.787 755.612, 1416 757.391, 1416 758.711 C 1416 760.297, 1417.752 762.792, 1421.156 766.056 C 1423.992 768.775, 1429.014 772.350, 1432.316 774 C 1436.423 776.052, 1439.800 777, 1443.005 777 C 1446.274 777, 1448.190 776.447, 1449.345 775.171 C 1450.255 774.165, 1451 772.096, 1451 770.572 C 1451 769.049, 1450.249 766.220, 1449.331 764.285 C 1448.413 762.351, 1446.169 759.318, 1444.345 757.546 C 1442.520 755.775, 1439.282 753.802, 1437.148 753.162 C 1435.014 752.523, 1431.070 752.052, 1428.384 752.116 C 1425.698 752.180, 1422.600 752.451, 1421.500 752.719 M 532 789.455 C 531.175 789.656, 527.125 790.363, 523 791.026 C 518.875 791.689, 511.900 793.358, 507.500 794.735 C 503.100 796.112, 495.675 799.168, 491 801.527 C 486.325 803.885, 479.350 808.047, 475.500 810.775 C 471.650 813.503, 465.570 818.607, 461.989 822.118 C 458.408 825.628, 452.783 831.839, 449.489 835.921 C 446.195 840.002, 443.408 842.702, 443.295 841.921 C 443.182 841.139, 442.390 833.075, 441.535 824 C 440.680 814.925, 439.740 806.038, 439.445 804.250 L 438.909 801 375.955 801 L 313 801 313 987 L 313 1173 380 1173 L 447 1173 447.008 1069.750 C 447.012 1004.134, 447.389 964.131, 448.041 960 C 448.605 956.425, 449.974 950.729, 451.084 947.341 C 452.194 943.954, 454.869 938.716, 457.027 935.701 C 459.186 932.687, 463.053 928.828, 465.621 927.128 C 468.189 925.427, 472.812 923.087, 475.895 921.929 C 478.978 920.770, 485.433 919.322, 490.239 918.710 C 496.563 917.906, 501.053 917.898, 506.485 918.680 C 510.708 919.288, 516.486 920.981, 519.692 922.550 C 522.826 924.084, 527.273 927.221, 529.574 929.521 C 531.874 931.822, 535.206 936.740, 536.977 940.451 C 538.748 944.162, 541.127 951.316, 542.264 956.349 C 544.266 965.211, 544.344 968.773, 544.736 1069.250 L 545.140 1173 612.070 1173 L 679 1173 679.008 1069.750 C 679.012 1004.134, 679.389 964.131, 680.041 960 C 680.605 956.425, 681.974 950.729, 683.084 947.341 C 684.194 943.954, 686.869 938.716, 689.027 935.701 C 691.186 932.687, 695.053 928.828, 697.621 927.128 C 700.189 925.427, 704.812 923.087, 707.895 921.929 C 710.978 920.770, 717.433 919.322, 722.239 918.710 C 728.563 917.906, 733.053 917.898, 738.485 918.680 C 742.708 919.288, 748.486 920.981, 751.692 922.550 C 754.826 924.084, 759.273 927.221, 761.574 929.521 C 763.874 931.822, 767.206 936.740, 768.977 940.451 C 770.748 944.162, 773.127 951.316, 774.264 956.349 C 776.266 965.211, 776.344 968.773, 776.736 1069.250 L 777.140 1173 844.117 1173 L 911.095 1173 910.705 1049.750 C 910.424 960.961, 909.977 923.984, 909.106 917.500 C 908.440 912.550, 906.773 902.875, 905.401 896 C 904.029 889.125, 901.162 878.270, 899.030 871.879 C 896.899 865.487, 893.490 856.951, 891.455 852.911 C 889.420 848.870, 885.691 842.400, 883.168 838.532 C 880.646 834.664, 874.063 827, 868.541 821.500 C 861.793 814.780, 855.792 809.896, 850.242 806.608 C 845.700 803.917, 837.867 800.169, 832.835 798.279 C 827.803 796.389, 819.819 794.007, 815.093 792.986 C 810.367 791.965, 802.130 790.650, 796.789 790.065 C 791.449 789.479, 782.760 789, 777.481 789 C 772.202 789, 764.647 789.486, 760.692 790.080 C 756.736 790.674, 749.976 792.043, 745.668 793.122 C 741.361 794.201, 733.863 796.797, 729.007 798.891 C 724.150 800.985, 716.200 805.338, 711.339 808.564 C 706.477 811.790, 698.626 818.271, 693.891 822.965 C 689.156 827.659, 682.631 835.112, 679.391 839.527 C 676.151 843.942, 671.491 851.158, 669.035 855.563 L 664.569 863.572 659.310 852.881 C 656.417 847.001, 651.365 838.626, 648.083 834.270 C 644.801 829.915, 638.882 823.301, 634.930 819.573 C 630.978 815.845, 624.667 810.804, 620.906 808.370 C 617.144 805.937, 611.096 802.614, 607.466 800.985 C 603.836 799.356, 597.183 796.908, 592.683 795.544 C 588.182 794.181, 580.450 792.344, 575.500 791.462 C 570.550 790.580, 559.075 789.686, 550 789.475 C 540.925 789.264, 532.825 789.255, 532 789.455 M 1084 789.586 C 1082.075 789.809, 1076.225 790.472, 1071 791.061 C 1065.775 791.649, 1056.093 793.207, 1049.485 794.523 C 1042.877 795.839, 1032.077 798.492, 1025.485 800.417 C 1018.893 802.343, 1008.961 805.695, 1003.414 807.868 C 997.866 810.040, 988.761 814.109, 983.179 816.910 C 977.597 819.711, 969.986 823.864, 966.265 826.139 C 962.544 828.414, 956.575 832.470, 953 835.154 C 949.425 837.837, 943.013 843.482, 938.750 847.697 C 934.487 851.913, 931 855.705, 931 856.125 C 931 856.544, 947.248 873.675, 967.107 894.194 C 986.966 914.712, 1003.729 931.500, 1004.357 931.500 C 1004.986 931.500, 1009.796 928.911, 1015.047 925.748 C 1020.298 922.584, 1028.972 918.208, 1034.322 916.022 C 1039.673 913.837, 1048.202 910.918, 1053.277 909.535 C 1058.353 908.153, 1067.229 906.314, 1073.002 905.450 C 1078.856 904.574, 1089.915 903.881, 1098 903.883 C 1105.975 903.886, 1114.975 904.368, 1118 904.956 C 1121.025 905.543, 1126.320 906.958, 1129.766 908.099 C 1133.213 909.240, 1138.707 911.960, 1141.977 914.143 C 1145.246 916.327, 1149.230 919.775, 1150.830 921.807 C 1152.430 923.838, 1154.952 927.906, 1156.435 930.846 C 1157.918 933.786, 1160.001 939.596, 1161.065 943.756 C 1162.129 947.916, 1163 951.889, 1163 952.585 C 1163 953.586, 1150.435 953.938, 1102.750 954.274 C 1052.422 954.629, 1040.713 954.979, 1031.647 956.402 C 1025.677 957.339, 1015.710 959.390, 1009.497 960.959 C 1003.284 962.528, 994.336 965.388, 989.611 967.314 C 984.887 969.240, 978.089 972.456, 974.506 974.460 C 970.922 976.464, 964.638 980.800, 960.540 984.097 C 956.442 987.393, 950.448 993.374, 947.218 997.389 C 943.989 1001.403, 939.741 1007.570, 937.778 1011.094 C 935.815 1014.617, 932.854 1021.356, 931.197 1026.069 C 929.540 1030.782, 927.412 1039.256, 926.468 1044.900 C 925.125 1052.930, 924.862 1058.898, 925.259 1072.331 C 925.677 1086.514, 926.220 1091.239, 928.379 1099.500 C 929.816 1105, 933.036 1113.738, 935.534 1118.918 C 938.032 1124.098, 941.731 1130.623, 943.753 1133.418 C 945.775 1136.213, 950.371 1141.578, 953.965 1145.340 C 957.559 1149.102, 963.425 1154.342, 967 1156.984 C 970.575 1159.627, 976.425 1163.388, 980 1165.342 C 983.575 1167.297, 990.554 1170.459, 995.509 1172.369 C 1000.464 1174.280, 1009.014 1176.977, 1014.509 1178.363 C 1020.004 1179.748, 1029.675 1181.674, 1036 1182.641 C 1044.056 1183.872, 1053.639 1184.410, 1068 1184.437 C 1083.862 1184.466, 1090.508 1184.069, 1097.374 1182.682 C 1102.255 1181.696, 1109.905 1179.742, 1114.374 1178.341 C 1118.843 1176.939, 1126.416 1173.780, 1131.202 1171.320 C 1135.987 1168.860, 1142.962 1164.549, 1146.702 1161.740 C 1150.441 1158.930, 1156.313 1153.786, 1159.750 1150.307 L 1166 1143.983 1166 1158.499 L 1166 1173.015 1228.750 1172.758 L 1291.500 1172.500 1291.500 1058.500 C 1291.500 968.771, 1291.215 942.393, 1290.159 934.603 C 1289.422 929.160, 1287.534 919.446, 1285.964 913.017 C 1284.394 906.588, 1281.696 897.767, 1279.968 893.414 C 1278.240 889.061, 1274.516 881, 1271.692 875.500 C 1268.869 870, 1263.327 861.210, 1259.377 855.967 C 1255.428 850.724, 1247.713 842.131, 1242.234 836.871 C 1236.754 831.612, 1228.069 824.498, 1222.933 821.063 C 1217.797 817.627, 1209.748 812.889, 1205.047 810.534 C 1200.346 808.179, 1192.225 804.662, 1187 802.719 C 1181.775 800.776, 1171.875 797.808, 1165 796.123 C 1158.125 794.439, 1147.775 792.345, 1142 791.471 C 1135.702 790.517, 1122.696 789.741, 1109.500 789.531 C 1097.400 789.339, 1085.925 789.363, 1084 789.586 M 1637 789.623 C 1634.525 789.846, 1627.550 790.721, 1621.500 791.567 C 1615.450 792.413, 1605.775 794.251, 1600 795.650 C 1594.225 797.050, 1585.663 799.670, 1580.973 801.473 C 1576.283 803.275, 1569.083 806.442, 1564.973 808.511 C 1560.863 810.579, 1554.801 814.103, 1551.502 816.342 C 1548.203 818.580, 1541.526 824.246, 1536.664 828.933 C 1531.803 833.619, 1525.439 841.064, 1522.524 845.477 C 1519.608 849.890, 1516.024 855.894, 1514.559 858.820 C 1513.094 861.746, 1510.612 868.068, 1509.043 872.868 C 1507.475 877.668, 1505.421 886.203, 1504.479 891.835 C 1503.163 899.703, 1502.878 905.827, 1503.247 918.287 C 1503.657 932.109, 1504.124 935.818, 1506.414 943.438 C 1507.891 948.354, 1511.137 956.320, 1513.626 961.140 C 1516.116 965.960, 1520.382 972.848, 1523.107 976.448 C 1525.832 980.048, 1531.143 986.044, 1534.909 989.772 C 1538.675 993.501, 1545.748 999.401, 1550.628 1002.882 C 1555.508 1006.364, 1564.900 1011.813, 1571.500 1014.991 C 1578.100 1018.170, 1587.021 1021.957, 1591.324 1023.407 C 1595.627 1024.858, 1603.277 1027.114, 1608.324 1028.420 C 1613.371 1029.726, 1624.250 1032.020, 1632.500 1033.518 C 1640.750 1035.016, 1652 1037.572, 1657.500 1039.198 C 1663 1040.823, 1670.780 1043.771, 1674.788 1045.748 C 1678.802 1047.727, 1683.631 1051.063, 1685.538 1053.174 C 1688.611 1056.575, 1689 1057.630, 1689 1062.553 C 1689 1065.603, 1688.341 1069.373, 1687.536 1070.931 C 1686.731 1072.488, 1684.713 1074.905, 1683.052 1076.303 C 1681.390 1077.701, 1677.437 1079.854, 1674.266 1081.088 C 1669.479 1082.950, 1666.547 1083.330, 1657 1083.324 C 1647.365 1083.318, 1644.239 1082.901, 1637.722 1080.755 C 1633.444 1079.347, 1626.694 1076.267, 1622.722 1073.910 C 1618.634 1071.485, 1612.028 1066.126, 1607.500 1061.563 C 1603.100 1057.128, 1597.925 1050.701, 1596 1047.280 C 1594.075 1043.859, 1592.162 1041.046, 1591.748 1041.030 C 1591.335 1041.013, 1570.972 1054.349, 1546.498 1070.663 C 1520.848 1087.762, 1502 1100.961, 1502 1101.824 C 1502 1102.648, 1504.539 1106.737, 1507.643 1110.911 C 1510.746 1115.085, 1519.184 1124.355, 1526.393 1131.512 C 1533.602 1138.669, 1543.775 1147.559, 1549 1151.269 C 1554.225 1154.979, 1564.800 1161.159, 1572.500 1165.004 C 1580.200 1168.849, 1591.337 1173.562, 1597.249 1175.478 C 1603.161 1177.394, 1612.492 1179.877, 1617.985 1180.997 C 1623.478 1182.116, 1632.816 1183.530, 1638.736 1184.139 C 1645.002 1184.784, 1656.813 1185.006, 1667 1184.672 C 1676.625 1184.356, 1689.882 1183.382, 1696.460 1182.507 C 1703.039 1181.632, 1712.714 1179.988, 1717.960 1178.853 C 1723.207 1177.719, 1732.133 1175.275, 1737.796 1173.422 C 1743.458 1171.569, 1751.958 1168.241, 1756.685 1166.026 C 1761.411 1163.812, 1768.928 1159.565, 1773.389 1156.589 C 1777.850 1153.613, 1784.396 1148.551, 1787.935 1145.339 C 1791.475 1142.128, 1796.901 1136.317, 1799.993 1132.427 C 1803.085 1128.537, 1807.790 1121.112, 1810.448 1115.927 C 1813.106 1110.742, 1815.379 1106.376, 1815.499 1106.224 C 1815.619 1106.073, 1820.169 1107.041, 1825.609 1108.377 C 1831.049 1109.712, 1837.525 1111.073, 1840 1111.400 C 1842.724 1111.761, 1843.908 1111.656, 1843 1111.133 C 1842.175 1110.658, 1839.250 1110.010, 1836.500 1109.693 C 1833.750 1109.377, 1827.827 1108.045, 1823.338 1106.734 C 1818.850 1105.424, 1812.550 1102.810, 1809.338 1100.926 C 1806.127 1099.042, 1800.350 1094.350, 1796.500 1090.500 C 1792.650 1086.650, 1787.837 1080.627, 1785.805 1077.116 C 1783.358 1072.887, 1781.248 1067.124, 1779.555 1060.046 C 1778.087 1053.906, 1777.001 1046.411, 1777.001 1042.430 C 1777.002 1038.472, 1778.068 1031.101, 1779.487 1025.245 C 1780.854 1019.604, 1783.058 1012.845, 1784.387 1010.224 C 1785.715 1007.603, 1789.386 1002.155, 1792.545 998.117 L 1798.289 990.777 1795.300 988.438 C 1793.657 987.152, 1790.592 983.602, 1788.490 980.550 C 1786.388 977.497, 1784.492 975, 1784.277 975 C 1784.063 975, 1784.700 976.404, 1785.693 978.119 C 1786.687 979.835, 1789.635 983.527, 1792.244 986.325 C 1795.264 989.563, 1796.641 991.759, 1796.032 992.368 C 1795.422 992.978, 1792.413 990.797, 1787.750 986.368 C 1783.722 982.541, 1776.618 976.891, 1771.963 973.812 C 1767.308 970.733, 1759.225 966.078, 1754 963.468 C 1748.775 960.857, 1737.975 956.580, 1730 953.962 C 1720.782 950.936, 1706.920 947.525, 1691.945 944.597 C 1678.990 942.063, 1663.915 938.599, 1658.445 936.898 C 1652.975 935.197, 1645.017 932.001, 1640.761 929.796 C 1636.504 927.592, 1631.666 924.245, 1630.011 922.359 C 1627.423 919.412, 1627 918.137, 1627 913.281 C 1627 909.624, 1627.725 906.134, 1629.056 903.384 C 1630.418 900.571, 1632.743 898.090, 1635.940 896.039 C 1638.816 894.193, 1643.745 892.306, 1648.134 891.371 C 1653.364 890.256, 1658.094 889.976, 1664.449 890.404 C 1669.371 890.735, 1676.346 891.737, 1679.949 892.629 C 1683.552 893.522, 1689.200 895.481, 1692.500 896.982 C 1695.800 898.484, 1701.305 901.795, 1704.732 904.341 C 1708.160 906.887, 1712.435 911.219, 1714.232 913.967 C 1716.030 916.715, 1718.040 918.972, 1718.701 918.982 C 1719.361 918.992, 1733.536 910.615, 1750.201 900.366 C 1766.865 890.117, 1781.737 880.861, 1783.250 879.798 L 1786 877.864 1786.131 882.182 C 1786.242 885.814, 1786.385 885.467, 1787.032 880 C 1787.455 876.425, 1788.553 870.575, 1789.472 867 C 1790.407 863.368, 1792.942 857.723, 1795.218 854.207 C 1797.458 850.746, 1801.231 846.206, 1803.601 844.120 C 1805.972 842.033, 1810.519 838.953, 1813.706 837.276 C 1816.893 835.598, 1823.100 833.444, 1827.500 832.489 C 1831.900 831.534, 1836.625 830.363, 1838 829.888 C 1840.023 829.189, 1839.832 829.125, 1837 829.556 C 1835.075 829.849, 1830.350 830.808, 1826.500 831.686 C 1822.650 832.565, 1817.475 834.328, 1815 835.603 C 1812.525 836.879, 1809.150 838.807, 1807.500 839.888 L 1804.500 841.853 1797.500 835.869 C 1793.650 832.578, 1786.675 827.269, 1782 824.072 C 1777.325 820.874, 1769.675 816.218, 1765 813.724 C 1760.325 811.230, 1751.165 807.076, 1744.645 804.492 C 1738.125 801.908, 1726.848 798.297, 1719.586 796.468 C 1712.323 794.639, 1701.683 792.402, 1695.940 791.497 C 1689.306 790.452, 1677.481 789.737, 1663.500 789.535 C 1651.400 789.360, 1639.475 789.400, 1637 789.623 M 1490.500 856.738 C 1487.750 860.433, 1482.958 865.491, 1479.850 867.978 C 1476.743 870.465, 1471.758 873.732, 1468.773 875.238 C 1465.788 876.745, 1459.781 878.911, 1455.423 880.052 C 1450.862 881.247, 1442.614 882.366, 1435.984 882.691 C 1427.850 883.090, 1419.775 882.704, 1408.484 881.378 C 1399.693 880.345, 1387.325 879.515, 1381 879.534 C 1370.217 879.565, 1368.721 879.827, 1357 883.736 C 1350.125 886.029, 1341.688 888.614, 1338.250 889.480 C 1332.541 890.918, 1331.462 890.915, 1325.791 889.446 C 1322.376 888.561, 1317.763 886.481, 1315.541 884.824 L 1311.500 881.811 1315.500 885.407 C 1317.700 887.386, 1321.188 889.471, 1323.250 890.041 L 1327 891.077 1327 1032.039 L 1327 1173 1394 1173 L 1461 1173 1461 1026.079 L 1461 879.159 1463.876 878.527 C 1465.457 878.180, 1470.147 875.667, 1474.297 872.942 C 1478.447 870.218, 1484.240 865.331, 1487.171 862.083 C 1490.102 858.835, 1493.313 854.787, 1494.307 853.088 C 1495.300 851.390, 1495.975 850.005, 1495.807 850.010 C 1495.638 850.016, 1493.250 853.044, 1490.500 856.738 M 1905.240 953.110 C 1902.897 954.270, 1900.076 956.489, 1898.971 958.041 C 1897.865 959.594, 1896.337 962.347, 1895.575 964.159 C 1894.212 967.402, 1894.269 967.555, 1899.181 973.727 C 1904.002 979.786, 1904.086 980, 1901.645 980 C 1900.255 980, 1898.868 980.405, 1898.562 980.899 C 1898.257 981.394, 1899.541 983.146, 1901.417 984.793 C 1903.294 986.441, 1906.495 988.338, 1908.531 989.010 C 1910.567 989.682, 1913.981 989.998, 1916.116 989.711 C 1918.252 989.425, 1921.991 988.023, 1924.426 986.597 C 1927.749 984.649, 1929.526 982.625, 1931.558 978.472 C 1933.801 973.887, 1934.155 972.133, 1933.628 968.220 C 1933.268 965.540, 1931.806 961.804, 1930.247 959.577 C 1928.736 957.419, 1925.517 954.606, 1923.093 953.327 C 1920.329 951.868, 1916.972 951, 1914.093 951.001 C 1911.436 951.001, 1907.704 951.890, 1905.240 953.110 M 1832.500 994.391 C 1829.750 995.063, 1825.016 996.752, 1821.981 998.145 C 1818.946 999.538, 1813.671 1003.262, 1810.259 1006.420 C 1806.018 1010.347, 1802.973 1014.329, 1800.631 1019.012 C 1798.658 1022.954, 1796.684 1028.947, 1795.977 1033.134 C 1795.284 1037.243, 1795.018 1043.283, 1795.365 1047.017 C 1795.703 1050.652, 1796.886 1056.262, 1797.994 1059.483 C 1799.102 1062.703, 1801.404 1067.513, 1803.110 1070.172 C 1804.816 1072.830, 1808.343 1076.921, 1810.947 1079.262 C 1813.551 1081.604, 1818.195 1084.750, 1821.266 1086.254 C 1824.337 1087.758, 1829.696 1089.659, 1833.175 1090.479 C 1836.654 1091.299, 1842.875 1091.951, 1847 1091.928 C 1851.125 1091.904, 1857.462 1091.112, 1861.081 1090.167 C 1864.701 1089.222, 1870.263 1086.885, 1873.441 1084.974 C 1876.619 1083.063, 1881.234 1079.270, 1883.697 1076.545 C 1886.159 1073.820, 1889.295 1069.378, 1890.665 1066.674 C 1892.036 1063.969, 1892.784 1061.409, 1892.328 1060.984 C 1891.873 1060.560, 1885.115 1058.139, 1877.312 1055.606 C 1869.509 1053.073, 1862.566 1051, 1861.883 1051 C 1861.201 1051, 1859.237 1052.533, 1857.521 1054.408 C 1855.718 1056.376, 1852.731 1058.260, 1850.450 1058.869 C 1848.057 1059.507, 1845.052 1059.591, 1842.826 1059.084 C 1840.806 1058.622, 1837.820 1057.296, 1836.190 1056.135 C 1834.561 1054.975, 1832.501 1052.211, 1831.614 1049.993 C 1830.726 1047.774, 1830 1044.151, 1830 1041.940 C 1830 1039.729, 1830.918 1036.121, 1832.040 1033.921 C 1833.163 1031.721, 1835.487 1029.066, 1837.207 1028.021 C 1838.926 1026.975, 1842.027 1025.833, 1844.099 1025.483 C 1846.800 1025.027, 1849.156 1025.418, 1852.428 1026.865 C 1855.148 1028.068, 1857.460 1029.916, 1858.155 1031.441 C 1858.796 1032.849, 1860.048 1034, 1860.937 1034 C 1861.825 1034, 1869.066 1031.825, 1877.026 1029.167 C 1888.568 1025.314, 1891.559 1023.940, 1891.791 1022.386 C 1891.951 1021.314, 1890.336 1017.736, 1888.202 1014.435 C 1886.069 1011.133, 1882.338 1006.720, 1879.912 1004.627 C 1877.485 1002.535, 1873.443 999.770, 1870.929 998.485 C 1868.414 997.199, 1863.624 995.439, 1860.284 994.574 C 1856.903 993.697, 1850.508 993.038, 1845.856 993.085 C 1841.260 993.132, 1835.250 993.720, 1832.500 994.391 M 1967 994.555 C 1963.425 995.323, 1956.900 997.730, 1952.500 999.904 C 1948.100 1002.078, 1943.180 1005.237, 1941.566 1006.925 L 1938.632 1009.994 1947.566 1019.247 C 1952.480 1024.336, 1956.802 1028.638, 1957.171 1028.807 C 1957.540 1028.976, 1960.015 1028.019, 1962.671 1026.681 C 1965.327 1025.343, 1969.885 1023.743, 1972.799 1023.124 C 1975.714 1022.506, 1979.642 1022, 1981.529 1022 C 1983.416 1022, 1986.786 1022.731, 1989.018 1023.624 C 1991.464 1024.603, 1993.658 1026.371, 1994.538 1028.074 C 1995.342 1029.629, 1996 1031.554, 1996 1032.353 C 1996 1033.554, 1992.918 1033.876, 1978.250 1034.210 C 1963.117 1034.554, 1959.717 1034.926, 1955.191 1036.733 C 1952.271 1037.899, 1948.279 1040.075, 1946.320 1041.569 C 1944.221 1043.170, 1941.713 1046.570, 1940.213 1049.847 C 1938.236 1054.165, 1937.667 1057.016, 1937.667 1062.603 C 1937.667 1068.411, 1938.193 1070.875, 1940.397 1075.379 C 1941.899 1078.448, 1944.786 1082.328, 1946.814 1084 C 1948.841 1085.672, 1952.975 1087.978, 1956 1089.125 C 1959.085 1090.294, 1965.062 1091.441, 1969.614 1091.737 C 1974.454 1092.052, 1979.775 1091.774, 1982.802 1091.048 C 1985.593 1090.378, 1989.929 1088.528, 1992.438 1086.937 L 1997 1084.044 1997 1086.547 L 1997 1089.050 2013.250 1088.775 L 2029.500 1088.500 2029.766 1060.563 C 2029.918 1044.666, 2029.594 1030.229, 2029.016 1027.063 C 2028.457 1024.003, 2026.650 1018.745, 2025 1015.377 C 2023.334 1011.977, 2019.968 1007.382, 2017.430 1005.042 C 2014.916 1002.725, 2010.076 999.527, 2006.675 997.935 C 2003.274 996.344, 1998.069 994.582, 1995.109 994.021 C 1992.149 993.459, 1986.076 993.036, 1981.614 993.079 C 1977.151 993.123, 1970.575 993.787, 1967 994.555 M 1897 1042.524 L 1897 1089.047 1914.250 1088.774 L 1931.500 1088.500 1931.760 1042.250 L 1932.020 996 1914.510 996 L 1897 996 1897 1042.524 M 1104.061 1019.087 C 1100.519 1019.545, 1094.444 1020.879, 1090.561 1022.051 C 1086.677 1023.223, 1080.890 1025.566, 1077.699 1027.257 C 1074.508 1028.949, 1070.077 1032.101, 1067.850 1034.261 C 1065.624 1036.422, 1062.641 1040.726, 1061.221 1043.827 C 1059.155 1048.341, 1058.629 1051.064, 1058.586 1057.483 C 1058.543 1063.821, 1059.022 1066.592, 1060.873 1070.714 C 1062.175 1073.611, 1065.325 1077.901, 1067.966 1080.371 C 1070.578 1082.815, 1074.467 1085.705, 1076.608 1086.795 C 1078.749 1087.884, 1083.543 1089.712, 1087.263 1090.859 C 1090.982 1092.005, 1098.997 1093.482, 1105.074 1094.141 C 1113.579 1095.063, 1117.863 1095.069, 1123.679 1094.165 C 1127.835 1093.519, 1134.051 1091.646, 1137.493 1090.003 C 1141.095 1088.284, 1145.952 1084.793, 1148.935 1081.779 C 1151.935 1078.746, 1155.560 1073.585, 1157.544 1069.521 C 1159.428 1065.659, 1161.661 1059.800, 1162.506 1056.500 C 1163.351 1053.200, 1164.475 1045.325, 1165.005 1039 C 1165.535 1032.675, 1165.975 1025.362, 1165.984 1022.750 L 1166 1018 1138.250 1018.127 C 1122.987 1018.197, 1107.602 1018.629, 1104.061 1019.087 M 1977.011 1052.752 C 1975.064 1053.727, 1973.122 1055.654, 1972.617 1057.110 C 1972.120 1058.545, 1972.009 1060.899, 1972.371 1062.341 C 1972.759 1063.888, 1974.356 1065.661, 1976.264 1066.663 C 1978.044 1067.598, 1981.814 1068.393, 1984.643 1068.431 C 1988.440 1068.482, 1990.373 1067.977, 1992.031 1066.500 C 1993.266 1065.400, 1994.889 1063.052, 1995.638 1061.282 C 1996.387 1059.512, 1997 1056.475, 1997 1054.532 L 1997 1051 1988.750 1051.002 C 1982.895 1051.003, 1979.487 1051.511, 1977.011 1052.752" stroke="none" fill="#1cd304" fill-rule="evenodd"/><path d="M 592.500 171.697 C 593.050 172.215, 597.124 175.204, 601.552 178.338 C 605.981 181.472, 611.903 186.391, 614.712 189.268 C 617.521 192.146, 622.384 198.100, 625.519 202.500 C 628.654 206.900, 633.015 214.066, 635.208 218.424 C 637.402 222.782, 640.676 230.882, 642.484 236.424 C 644.292 241.966, 646.926 251.675, 648.338 258 C 649.749 264.325, 652.291 277.375, 653.986 287 C 655.680 296.625, 659.038 312.825, 661.446 323 C 663.855 333.175, 666.122 343.787, 666.484 346.582 C 666.923 349.973, 666.601 353.801, 665.518 358.082 C 664.624 361.612, 663.101 365.625, 662.133 367 C 661.164 368.375, 659.994 370.132, 659.531 370.905 C 658.965 371.851, 659.064 372.079, 659.834 371.603 C 660.462 371.214, 662.056 369.007, 663.376 366.698 C 664.696 364.389, 666.335 360.082, 667.017 357.126 C 667.736 354.017, 668.001 349.381, 667.647 346.126 C 667.311 343.032, 665.218 333.075, 662.996 324 C 660.773 314.925, 657.379 298.500, 655.451 287.500 C 653.524 276.500, 650.345 260.975, 648.387 253 C 646.429 245.025, 643.266 234.450, 641.358 229.500 C 639.449 224.550, 636.362 217.769, 634.496 214.431 C 632.631 211.093, 628.975 205.468, 626.371 201.931 C 623.768 198.394, 619.357 193.067, 616.569 190.094 C 613.781 187.120, 607.949 182.040, 603.609 178.804 C 599.269 175.567, 594.769 172.433, 593.609 171.837 C 592.449 171.242, 591.950 171.179, 592.500 171.697 M 456.774 190.857 C 453.216 194.628, 448.202 200.661, 445.631 204.264 C 443.061 207.866, 439.176 214.615, 436.998 219.262 C 434.821 223.909, 431.875 232.389, 430.453 238.106 C 428.939 244.190, 427.631 252.900, 427.298 259.113 C 426.964 265.353, 427.227 273.181, 427.935 278.113 C 428.598 282.726, 430.429 291.790, 432.004 298.255 C 433.578 304.721, 436.436 313.639, 438.353 318.074 C 440.270 322.509, 443.338 328.650, 445.169 331.722 C 447.001 334.794, 452.037 340.950, 456.361 345.403 L 464.221 353.500 457.361 345.892 C 453.587 341.708, 448.420 334.733, 445.878 330.392 C 443.336 326.052, 440.086 319.529, 438.655 315.897 C 437.225 312.265, 434.915 304.788, 433.522 299.280 C 432.130 293.772, 430.321 284.818, 429.501 279.383 C 428.682 273.947, 428.011 267.025, 428.010 264 C 428.009 260.975, 428.672 254.450, 429.483 249.500 C 430.294 244.550, 431.862 237.262, 432.967 233.305 C 434.072 229.348, 436.115 223.535, 437.507 220.388 C 438.899 217.242, 442.476 211.002, 445.456 206.522 C 448.437 202.043, 453.871 195.143, 457.531 191.189 C 461.192 187.235, 463.975 184, 463.715 184 C 463.455 184, 460.331 187.086, 456.774 190.857 M 160 452 L 160 712 329 712 L 498 712 498 648.500 L 498 585 400.500 585 L 303 585 303 388.500 L 303 192 231.500 192 L 160 192 160 452 M 907.597 329.541 C 903.250 330.362, 895.636 332.393, 890.677 334.055 C 885.717 335.717, 878.072 338.942, 873.689 341.223 C 869.305 343.504, 862.969 347.383, 859.609 349.844 C 856.249 352.306, 849.991 357.722, 845.701 361.881 C 841.412 366.039, 836.061 371.829, 833.810 374.746 C 831.559 377.664, 829.527 379.860, 829.293 379.627 C 829.060 379.393, 828.010 370.944, 826.959 360.851 C 825.909 350.758, 825.039 341.938, 825.025 341.250 C 825.005 340.263, 811.520 340, 761 340 L 697 340 697 526.007 L 697 712.014 764.750 711.757 L 832.500 711.500 833.009 603.500 C 833.487 502.168, 833.632 495.160, 835.355 490 C 836.365 486.975, 838.578 481.881, 840.273 478.679 C 841.967 475.478, 845.356 471.096, 847.803 468.942 C 850.250 466.788, 854.558 463.938, 857.376 462.608 C 860.194 461.278, 865.269 459.647, 868.653 458.984 C 872.127 458.303, 879.755 457.935, 886.174 458.139 C 896.607 458.470, 898.087 458.768, 904.163 461.760 C 907.821 463.560, 912.447 466.860, 914.499 469.131 C 916.542 471.392, 919.716 476.450, 921.553 480.371 C 923.390 484.292, 925.677 490.875, 926.636 495 C 928.222 501.823, 928.411 511.950, 928.733 607.257 L 929.086 712.014 996.793 711.757 L 1064.500 711.500 1065.009 603.500 C 1065.487 502.168, 1065.632 495.160, 1067.355 490 C 1068.365 486.975, 1070.578 481.881, 1072.273 478.679 C 1073.967 475.478, 1077.356 471.096, 1079.803 468.942 C 1082.250 466.788, 1086.558 463.938, 1089.376 462.608 C 1092.194 461.278, 1097.269 459.647, 1100.653 458.984 C 1104.127 458.303, 1111.755 457.935, 1118.174 458.139 C 1128.628 458.471, 1130.079 458.764, 1136.218 461.787 C 1140.223 463.758, 1144.432 466.820, 1146.737 469.439 C 1148.850 471.839, 1151.758 476.210, 1153.198 479.152 C 1154.638 482.093, 1156.515 487.200, 1157.370 490.500 C 1158.224 493.800, 1159.387 500.550, 1159.953 505.500 C 1160.592 511.079, 1160.987 552.043, 1160.992 613.257 L 1161 712.014 1228.750 711.757 L 1296.500 711.500 1296.802 605.500 C 1296.989 539.933, 1296.700 491.680, 1296.043 479 C 1295.459 467.725, 1294.338 454.225, 1293.552 449 C 1292.766 443.775, 1291.390 435.900, 1290.496 431.500 C 1289.601 427.100, 1287.106 418.189, 1284.951 411.697 C 1282.796 405.205, 1278.689 395.330, 1275.825 389.753 C 1272.960 384.176, 1268.012 376.158, 1264.830 371.935 C 1261.647 367.711, 1256.306 361.721, 1252.959 358.623 C 1249.612 355.524, 1244.211 351.180, 1240.955 348.970 C 1237.700 346.759, 1231.541 343.222, 1227.268 341.109 C 1222.996 338.996, 1216.475 336.275, 1212.777 335.061 C 1209.080 333.848, 1201.880 331.959, 1196.777 330.865 C 1190.325 329.481, 1181.867 328.706, 1169 328.322 C 1154.653 327.894, 1148.480 328.123, 1141.500 329.343 C 1136.550 330.209, 1128.900 332.091, 1124.500 333.526 C 1120.100 334.961, 1113.008 337.881, 1108.740 340.015 C 1104.472 342.148, 1097.547 346.267, 1093.352 349.168 C 1089.156 352.068, 1082.264 357.829, 1078.037 361.971 C 1073.810 366.112, 1067.535 373.302, 1064.092 377.949 C 1060.650 382.596, 1056.007 389.726, 1053.775 393.793 L 1049.716 401.188 1044.950 391.600 C 1042.328 386.326, 1038.034 378.971, 1035.406 375.256 C 1032.778 371.540, 1027.224 365.091, 1023.064 360.924 C 1018.904 356.757, 1012.800 351.531, 1009.500 349.310 C 1006.200 347.089, 1000.350 343.692, 996.500 341.761 C 992.650 339.831, 986.235 337.078, 982.244 335.645 C 978.253 334.211, 970.603 332.098, 965.244 330.948 C 957.781 329.346, 950.818 328.762, 935.500 328.453 C 920.529 328.150, 913.513 328.424, 907.597 329.541 M 1890.500 329.011 C 1886.650 329.485, 1879 330.620, 1873.500 331.533 C 1868 332.445, 1857.200 334.768, 1849.500 336.695 C 1841.800 338.621, 1830.550 341.991, 1824.500 344.183 C 1818.450 346.375, 1807.191 351.228, 1799.480 354.967 C 1791.768 358.705, 1780.680 364.960, 1774.840 368.866 C 1768.999 372.771, 1759.783 380.213, 1754.360 385.403 L 1744.500 394.840 1750.058 400.670 C 1753.115 403.877, 1769.539 420.900, 1786.555 438.500 C 1803.572 456.100, 1817.954 470.802, 1818.516 471.170 C 1819.078 471.539, 1822.229 470.012, 1825.519 467.776 C 1828.808 465.541, 1836 461.548, 1841.500 458.904 C 1847 456.259, 1855.660 452.738, 1860.745 451.079 C 1865.829 449.420, 1875.054 447.047, 1881.245 445.805 C 1890.585 443.932, 1895.818 443.544, 1912 443.524 C 1927.543 443.505, 1932.819 443.857, 1938 445.260 C 1941.575 446.228, 1947.727 448.598, 1951.672 450.526 C 1956.338 452.807, 1960.355 455.714, 1963.172 458.847 C 1965.552 461.495, 1968.705 465.877, 1970.178 468.584 C 1971.651 471.291, 1973.789 476.871, 1974.928 480.983 C 1976.068 485.095, 1977 489.451, 1977 490.662 L 1977 492.864 1915.250 493.300 C 1864.372 493.659, 1851.856 494.021, 1844.162 495.352 C 1839.026 496.241, 1830.284 498.116, 1824.735 499.519 C 1819.187 500.921, 1810.318 503.768, 1805.027 505.845 C 1799.736 507.922, 1791.643 511.844, 1787.041 514.561 C 1782.439 517.277, 1774.885 523.072, 1770.254 527.438 C 1765.622 531.804, 1759.898 538.104, 1757.534 541.438 C 1755.170 544.772, 1751.886 550.200, 1750.235 553.500 C 1748.585 556.800, 1746.030 563.323, 1744.556 567.996 C 1743.083 572.669, 1741.233 580.769, 1740.445 585.996 C 1739.657 591.223, 1739.012 600.450, 1739.012 606.500 C 1739.012 612.550, 1739.685 621.966, 1740.507 627.423 C 1741.330 632.881, 1743.503 641.727, 1745.336 647.081 C 1747.169 652.435, 1750.585 660.165, 1752.928 664.259 C 1755.270 668.353, 1759.972 675.032, 1763.376 679.101 C 1766.780 683.171, 1773.375 689.562, 1778.032 693.305 C 1783.587 697.769, 1790.973 702.318, 1799.500 706.526 C 1806.650 710.055, 1817.053 714.270, 1822.619 715.893 C 1828.184 717.517, 1838.534 719.872, 1845.619 721.128 C 1856.533 723.063, 1862.089 723.418, 1882 723.456 C 1901.312 723.492, 1907.104 723.164, 1914.500 721.612 C 1919.450 720.574, 1927.325 718.386, 1932 716.749 C 1936.675 715.112, 1942.750 712.646, 1945.500 711.268 C 1948.250 709.891, 1953.650 706.685, 1957.500 704.145 C 1961.350 701.605, 1967.987 696.198, 1972.250 692.131 L 1980 684.735 1980 698.367 L 1980 712 2043.500 712 L 2107 712 2107 598.051 C 2107 502.149, 2106.761 482.277, 2105.489 472.576 C 2104.658 466.237, 2102.667 455.977, 2101.064 449.775 C 2099.461 443.574, 2096.310 434, 2094.061 428.500 C 2091.812 423, 2087.905 414.900, 2085.379 410.500 C 2082.852 406.100, 2077.652 398.350, 2073.822 393.278 C 2069.992 388.205, 2062.734 380.172, 2057.692 375.426 C 2052.650 370.679, 2043.874 363.686, 2038.189 359.884 C 2032.504 356.083, 2023.723 350.974, 2018.676 348.532 C 2013.629 346.090, 2005.675 342.690, 2001 340.978 C 1996.325 339.266, 1988.225 336.753, 1983 335.393 C 1977.775 334.034, 1968.100 331.987, 1961.500 330.846 C 1951.929 329.190, 1944.236 328.707, 1923.500 328.459 C 1909.200 328.289, 1894.350 328.537, 1890.500 329.011 M 1535.500 331.475 C 1531.650 332.187, 1525.716 333.501, 1522.312 334.396 C 1518.909 335.290, 1512.446 337.597, 1507.950 339.521 C 1503.454 341.446, 1496.039 345.456, 1491.473 348.432 C 1486.906 351.409, 1479.759 357.084, 1475.591 361.043 C 1471.423 365.003, 1465.666 371.319, 1462.798 375.080 C 1459.930 378.840, 1457.450 381.784, 1457.287 381.621 C 1457.124 381.458, 1456.093 372.608, 1454.995 361.955 C 1453.898 351.303, 1453 342.005, 1453 341.293 C 1453 340.249, 1440.588 340, 1388.500 340 L 1324 340 1324 557.558 L 1324 775.117 1320.998 787.006 C 1319.348 793.545, 1316.877 805.403, 1315.508 813.356 C 1314.139 821.310, 1311.215 835.138, 1309.009 844.085 C 1306.804 853.032, 1305.005 861.960, 1305.012 863.926 C 1305.018 865.892, 1305.659 869.888, 1306.436 872.806 C 1307.213 875.725, 1309.007 879.631, 1310.422 881.487 C 1311.837 883.342, 1314.459 885.894, 1316.248 887.158 C 1318.512 888.757, 1317.935 887.882, 1314.347 884.277 C 1309.771 879.679, 1308.998 878.267, 1307.443 871.674 L 1305.693 864.249 1308.346 852.624 C 1309.806 846.231, 1312.103 835.938, 1313.451 829.750 C 1314.799 823.563, 1317.252 811.525, 1318.901 803 C 1320.550 794.475, 1323.071 783.475, 1324.502 778.556 C 1325.933 773.637, 1328.480 766.306, 1330.162 762.265 C 1331.844 758.225, 1335.355 751.649, 1337.964 747.652 C 1340.573 743.655, 1345.540 737.358, 1349.001 733.658 C 1352.462 729.958, 1359.235 724.295, 1364.052 721.073 C 1368.869 717.851, 1375.300 714.283, 1378.344 713.144 C 1381.388 712.005, 1387.618 710.060, 1392.189 708.821 C 1399.037 706.965, 1403.140 706.563, 1415.500 706.534 C 1427.725 706.506, 1432.171 706.912, 1439.528 708.728 C 1444.494 709.953, 1451.202 711.865, 1454.435 712.978 C 1457.668 714.090, 1460.355 715, 1460.407 715.001 C 1460.458 715.002, 1460.369 705.938, 1460.209 694.859 L 1459.918 674.717 1464.132 680.108 C 1466.450 683.074, 1471.531 688.583, 1475.423 692.350 C 1479.315 696.118, 1486.152 701.632, 1490.617 704.604 C 1495.081 707.575, 1502.056 711.534, 1506.117 713.402 C 1510.177 715.269, 1516.650 717.724, 1520.500 718.857 C 1524.350 719.991, 1531.496 721.612, 1536.381 722.459 C 1541.601 723.365, 1551.083 723.992, 1559.381 723.980 C 1567.146 723.970, 1578.286 723.324, 1584.136 722.545 C 1589.986 721.766, 1598.536 720.231, 1603.136 719.134 C 1607.736 718.037, 1615.550 715.706, 1620.500 713.954 C 1625.450 712.203, 1632.650 709.190, 1636.500 707.258 C 1640.350 705.327, 1646.650 701.723, 1650.500 699.249 C 1654.350 696.776, 1661.142 691.694, 1665.594 687.957 C 1670.046 684.220, 1676.181 678.313, 1679.226 674.831 C 1682.272 671.349, 1687.301 664.952, 1690.402 660.616 C 1693.504 656.280, 1698.022 649.080, 1700.442 644.616 C 1702.863 640.152, 1706.414 632.675, 1708.334 628 C 1710.253 623.325, 1712.978 615.900, 1714.388 611.500 C 1715.798 607.100, 1718.068 598.775, 1719.431 593 C 1720.795 587.225, 1722.624 577.593, 1723.496 571.595 C 1724.368 565.597, 1725.488 552.848, 1725.985 543.263 C 1726.537 532.591, 1726.519 519.066, 1725.938 508.371 C 1725.415 498.766, 1724.330 486.523, 1723.525 481.166 C 1722.720 475.808, 1721.366 468.066, 1720.516 463.962 C 1719.665 459.858, 1717.611 451.893, 1715.951 446.262 C 1714.290 440.631, 1710.934 431.254, 1708.492 425.425 C 1706.049 419.596, 1701.812 410.913, 1699.074 406.130 C 1696.337 401.346, 1691.425 393.848, 1688.160 389.466 C 1684.894 385.085, 1677.785 377.209, 1672.361 371.964 C 1666.938 366.719, 1658.346 359.656, 1653.269 356.270 C 1648.192 352.884, 1640.114 348.249, 1635.317 345.970 C 1630.521 343.691, 1622.641 340.502, 1617.807 338.882 C 1612.972 337.262, 1604.851 335.073, 1599.759 334.018 C 1594.666 332.962, 1586.687 331.626, 1582.026 331.049 C 1577.366 330.472, 1566.566 330.041, 1558.026 330.090 C 1549.487 330.140, 1539.350 330.763, 1535.500 331.475 M 574.500 363.587 C 573.400 363.759, 564.304 364.856, 554.288 366.024 C 544.271 367.192, 529.646 368.496, 521.788 368.924 C 513.929 369.351, 509.413 369.768, 511.750 369.850 L 516 370 516 541.007 L 516 712.014 583.750 711.757 L 651.500 711.500 651.753 543.750 C 651.907 441.257, 651.645 376, 651.079 376 C 650.570 376, 647.881 376.524, 645.104 377.165 C 641.212 378.064, 638.732 378.051, 634.278 377.109 C 631.100 376.437, 621.300 373.458, 612.500 370.488 C 602.527 367.124, 593.308 364.696, 588.026 364.045 C 583.366 363.470, 578.866 363.061, 578.026 363.136 C 577.187 363.211, 575.600 363.414, 574.500 363.587 M 1506.788 458.551 C 1503.647 459.313, 1497.797 461.582, 1493.788 463.593 C 1488.581 466.205, 1484.354 469.427, 1478.986 474.875 C 1473.575 480.365, 1470.452 484.599, 1467.828 490 C 1465.824 494.125, 1463.364 500.425, 1462.361 504 C 1460.949 509.035, 1460.534 514.106, 1460.519 526.500 C 1460.502 540.510, 1460.791 543.433, 1462.842 550 C 1464.130 554.125, 1466.754 560.502, 1468.674 564.170 C 1470.593 567.839, 1474.616 573.550, 1477.614 576.863 C 1480.611 580.175, 1485.862 584.721, 1489.282 586.965 C 1492.702 589.209, 1499.100 592.206, 1503.500 593.626 C 1510.018 595.728, 1513.446 596.206, 1522 596.206 C 1530.554 596.206, 1533.982 595.728, 1540.500 593.626 C 1544.900 592.206, 1551.298 589.209, 1554.718 586.965 C 1558.138 584.721, 1563.465 580.098, 1566.556 576.693 C 1570.119 572.767, 1573.751 567.206, 1576.479 561.500 C 1578.845 556.550, 1581.499 549.506, 1582.377 545.848 C 1583.255 542.189, 1584.255 535.439, 1584.599 530.848 C 1585.029 525.111, 1584.725 519.634, 1583.628 513.337 C 1582.749 508.298, 1580.956 501.214, 1579.642 497.596 C 1578.329 493.977, 1575.735 488.447, 1573.877 485.306 C 1572.020 482.165, 1567.744 476.847, 1564.376 473.488 C 1560.866 469.987, 1555.317 465.841, 1551.376 463.775 C 1547.594 461.793, 1541.735 459.457, 1538.356 458.585 C 1534.606 457.618, 1528.369 457.032, 1522.356 457.083 C 1516.935 457.129, 1509.930 457.790, 1506.788 458.551 M 1922.754 558.085 C 1918.494 558.536, 1911.969 559.651, 1908.254 560.562 C 1904.539 561.474, 1898.700 563.538, 1895.278 565.148 C 1891.856 566.758, 1886.884 570.196, 1884.231 572.788 C 1881.577 575.380, 1878.335 579.718, 1877.027 582.429 C 1875.379 585.844, 1874.519 589.683, 1874.226 594.929 C 1873.889 600.980, 1874.238 603.648, 1875.963 608.221 C 1877.281 611.714, 1879.860 615.731, 1882.586 618.535 C 1885.078 621.099, 1889.801 624.411, 1893.275 626.031 C 1896.699 627.627, 1902.425 629.733, 1906 630.712 C 1910.966 632.071, 1916.276 632.492, 1928.500 632.495 C 1944.459 632.500, 1944.517 632.492, 1951.315 629.272 C 1955.612 627.237, 1960.046 624.080, 1963.315 620.729 C 1966.167 617.806, 1969.962 612.509, 1971.748 608.957 C 1973.534 605.406, 1975.922 598.900, 1977.053 594.500 C 1978.433 589.133, 1979.306 581.646, 1979.707 571.750 L 1980.304 557 1955.402 557.133 C 1941.706 557.206, 1927.014 557.635, 1922.754 558.085 M 1482.130 729.737 C 1485.244 732.617, 1490.046 738.017, 1492.801 741.737 C 1495.556 745.457, 1499.394 751.657, 1501.329 755.516 C 1503.263 759.375, 1506.090 767.250, 1507.610 773.016 C 1509.874 781.604, 1510.369 785.579, 1510.347 795 C 1510.327 803.931, 1509.703 809.181, 1507.556 818.500 C 1506.035 825.100, 1503.694 833.425, 1502.353 837 C 1501.012 840.575, 1498.138 846.497, 1495.967 850.159 C 1493.795 853.822, 1489.778 859.271, 1487.039 862.267 C 1484.300 865.264, 1479.458 869.452, 1476.280 871.574 C 1473.101 873.696, 1470.050 875.849, 1469.500 876.359 C 1468.950 876.869, 1470.468 876.209, 1472.874 874.893 C 1475.280 873.577, 1480.145 869.848, 1483.685 866.606 C 1487.225 863.364, 1491.832 858.189, 1493.924 855.106 C 1496.015 852.023, 1499.200 846.577, 1501.002 843.004 C 1502.803 839.431, 1505.852 830.431, 1507.776 823.004 C 1510.843 811.166, 1511.289 807.897, 1511.387 796.500 C 1511.478 786.088, 1511.040 781.578, 1509.190 773.846 C 1507.919 768.537, 1505.304 760.904, 1503.377 756.884 C 1501.451 752.864, 1497.684 746.634, 1495.005 743.038 C 1492.327 739.442, 1487.968 734.459, 1485.318 731.964 C 1482.668 729.470, 1479.593 726.770, 1478.484 725.964 C 1477.375 725.159, 1479.016 726.857, 1482.130 729.737 M 1402.870 726.071 C 1399.773 726.526, 1394.373 727.859, 1390.870 729.032 C 1387.366 730.206, 1382.140 732.511, 1379.255 734.154 C 1376.371 735.797, 1371.524 739.167, 1368.484 741.642 C 1365.445 744.118, 1360.679 749.149, 1357.894 752.822 C 1355.108 756.495, 1351.091 763.100, 1348.967 767.500 C 1346.843 771.900, 1343.780 780.242, 1342.161 786.037 C 1340.542 791.833, 1338.007 803.533, 1336.528 812.037 C 1335.050 820.542, 1332.050 834.785, 1329.863 843.688 C 1327.284 854.186, 1325.993 861.557, 1326.193 864.656 C 1326.448 868.620, 1326.951 869.687, 1329.145 870.914 C 1331.612 872.293, 1332.753 872.076, 1346.145 867.682 C 1354.040 865.091, 1363.875 862.258, 1368 861.387 C 1373.420 860.243, 1378.412 859.957, 1386 860.356 C 1391.775 860.660, 1401.900 861.590, 1408.500 862.423 C 1415.100 863.256, 1425 863.944, 1430.500 863.951 C 1436 863.959, 1443.546 863.320, 1447.270 862.531 C 1450.993 861.742, 1456.713 859.671, 1459.981 857.929 C 1463.249 856.188, 1468.077 852.571, 1470.711 849.891 C 1473.345 847.212, 1477.198 842.217, 1479.274 838.790 C 1481.349 835.363, 1484.347 828.496, 1485.936 823.530 C 1487.525 818.563, 1489.376 810.717, 1490.050 806.094 C 1490.743 801.340, 1491.028 793.953, 1490.705 789.094 C 1490.363 783.936, 1489.136 777.567, 1487.638 773.165 C 1486.265 769.131, 1483.647 763.353, 1481.821 760.325 C 1479.994 757.297, 1476.116 752.179, 1473.203 748.951 C 1470.290 745.723, 1464.609 740.877, 1460.579 738.181 C 1456.549 735.485, 1449.439 731.901, 1444.780 730.215 C 1440.120 728.529, 1432.831 726.666, 1428.582 726.075 C 1424.332 725.484, 1418.075 725.055, 1414.678 725.122 C 1411.280 725.189, 1405.966 725.616, 1402.870 726.071 M 1421.500 752.719 C 1420.400 752.987, 1418.713 753.905, 1417.750 754.758 C 1416.787 755.612, 1416 757.391, 1416 758.711 C 1416 760.297, 1417.752 762.792, 1421.156 766.056 C 1423.992 768.775, 1429.014 772.350, 1432.316 774 C 1436.423 776.052, 1439.800 777, 1443.005 777 C 1446.274 777, 1448.190 776.447, 1449.345 775.171 C 1450.255 774.165, 1451 772.096, 1451 770.572 C 1451 769.049, 1450.249 766.220, 1449.331 764.285 C 1448.413 762.351, 1446.169 759.318, 1444.345 757.546 C 1442.520 755.775, 1439.282 753.802, 1437.148 753.162 C 1435.014 752.523, 1431.070 752.052, 1428.384 752.116 C 1425.698 752.180, 1422.600 752.451, 1421.500 752.719 M 312.490 987 C 312.490 1089.575, 312.607 1131.537, 312.750 1080.250 C 312.893 1028.962, 312.893 945.037, 312.750 893.750 C 312.607 842.462, 312.490 884.425, 312.490 987 M 1830.776 850.479 C 1828.178 851.194, 1824.060 852.947, 1821.625 854.374 C 1819.190 855.801, 1815.387 859.025, 1813.174 861.540 C 1810.961 864.054, 1808.441 868.191, 1807.575 870.734 C 1806.709 873.276, 1806 878.089, 1806.001 881.428 C 1806.001 886.072, 1806.694 888.964, 1808.946 893.725 C 1810.566 897.148, 1813.716 902.636, 1815.946 905.920 C 1818.176 909.204, 1820 912.077, 1820 912.306 C 1820 912.534, 1817.138 914.573, 1813.640 916.835 C 1809.550 919.480, 1805.990 922.832, 1803.667 926.224 C 1801.680 929.126, 1799.319 933.525, 1798.420 936 C 1797.521 938.475, 1796.759 943.650, 1796.725 947.500 C 1796.692 951.350, 1797.197 956.371, 1797.846 958.657 C 1798.496 960.944, 1800.484 964.979, 1802.264 967.624 C 1804.044 970.269, 1807.398 973.873, 1809.718 975.633 C 1812.037 977.392, 1816.537 979.859, 1819.718 981.114 C 1824.676 983.071, 1827.211 983.382, 1837.500 983.296 C 1846.924 983.217, 1851.619 982.644, 1859.370 980.625 C 1868.217 978.321, 1869.458 978.207, 1871.342 979.527 C 1872.901 980.619, 1876.425 980.997, 1884.973 980.989 C 1891.313 980.983, 1898.168 980.702, 1900.207 980.365 L 1903.915 979.752 1897.470 971.498 L 1891.025 963.244 1894.114 959.372 C 1895.814 957.242, 1898.512 952.917, 1900.111 949.760 C 1901.710 946.603, 1903.683 941.203, 1904.494 937.760 C 1905.306 934.317, 1905.977 930.263, 1905.985 928.750 L 1906 926 1892.019 926 L 1878.038 926 1877.450 928.750 C 1877.126 930.263, 1876.325 933.039, 1875.669 934.920 C 1875.014 936.802, 1873.988 938.504, 1873.389 938.704 C 1872.791 938.903, 1869.455 935.339, 1865.977 930.783 C 1862.499 926.227, 1859.309 922.038, 1858.889 921.473 C 1858.442 920.871, 1861.027 918.183, 1865.139 914.973 C 1868.996 911.963, 1873.711 907.602, 1875.616 905.282 C 1877.522 902.962, 1880.242 898.529, 1881.661 895.430 C 1883.931 890.471, 1884.189 888.819, 1883.812 881.636 C 1883.466 875.043, 1882.829 872.456, 1880.495 868.169 C 1878.907 865.250, 1876.104 861.542, 1874.267 859.929 C 1872.429 858.316, 1868.700 855.868, 1865.980 854.490 C 1863.259 853.111, 1858.456 851.312, 1855.307 850.492 C 1852.157 849.671, 1846.412 849.040, 1842.540 849.089 C 1838.668 849.139, 1833.374 849.764, 1830.776 850.479 M 1838.656 877.074 C 1837.642 877.696, 1836.152 879.785, 1835.345 881.717 C 1833.966 885.018, 1834.031 885.544, 1836.435 890.456 C 1837.841 893.331, 1839.834 896.444, 1840.863 897.376 C 1842.639 898.983, 1842.988 898.868, 1847.776 895.083 C 1850.550 892.890, 1853.535 890.075, 1854.409 888.826 C 1855.284 887.577, 1856 885.555, 1856 884.333 C 1856 883.111, 1854.951 880.892, 1853.669 879.402 C 1851.781 877.206, 1850.311 876.622, 1845.919 876.318 C 1842.939 876.113, 1839.670 876.453, 1838.656 877.074 M 1461.241 1025.750 C 1461.374 1106.463, 1461.598 1148.875, 1461.740 1120 C 1461.882 1091.125, 1462.111 1025.087, 1462.249 973.250 C 1462.387 921.412, 1462.162 879, 1461.750 879 C 1461.338 879, 1461.108 945.038, 1461.241 1025.750 M 1326.486 1032 C 1326.486 1109.825, 1326.605 1141.662, 1326.750 1102.750 C 1326.895 1063.837, 1326.895 1000.162, 1326.750 961.250 C 1326.605 922.337, 1326.486 954.175, 1326.486 1032 M 1832.386 938.234 C 1830.360 940.013, 1828.099 942.913, 1827.361 944.678 C 1826.623 946.444, 1826.307 948.701, 1826.659 949.694 C 1827.010 950.687, 1828.203 952.506, 1829.309 953.735 C 1830.415 954.964, 1832.829 956.252, 1834.673 956.598 C 1836.516 956.944, 1840.386 956.932, 1843.271 956.572 C 1846.157 956.211, 1849.148 955.526, 1849.920 955.050 C 1851.017 954.372, 1849.730 952.092, 1844.018 944.591 C 1840 939.316, 1836.568 935, 1836.391 935 C 1836.214 935, 1834.412 936.455, 1832.386 938.234 M 911.483 1060 C 911.483 1121.875, 911.603 1147.188, 911.750 1116.250 C 911.897 1085.313, 911.897 1034.688, 911.750 1003.750 C 911.603 972.813, 911.483 998.125, 911.483 1060 M 447.482 1068 C 447.482 1125.475, 447.602 1148.987, 447.750 1120.250 C 447.897 1091.512, 447.897 1044.487, 447.750 1015.750 C 447.602 987.012, 447.482 1010.525, 447.482 1068 M 679.482 1068 C 679.482 1125.475, 679.602 1148.987, 679.750 1120.250 C 679.897 1091.512, 679.897 1044.487, 679.750 1015.750 C 679.602 987.012, 679.482 1010.525, 679.482 1068 M 544.480 1077 C 544.480 1130.075, 544.602 1151.788, 544.750 1125.250 C 544.898 1098.713, 544.898 1055.288, 544.750 1028.750 C 544.602 1002.213, 544.480 1023.925, 544.480 1077 M 776.480 1077 C 776.480 1130.075, 776.602 1151.788, 776.750 1125.250 C 776.898 1098.713, 776.898 1055.288, 776.750 1028.750 C 776.602 1002.213, 776.480 1023.925, 776.480 1077" stroke="none" fill="#642ea3" fill-rule="evenodd"/></svg>